<svg width="24" height="24" viewBox="0 0 24 24" fill="none" xmlns="http://www.w3.org/2000/svg">
<path d="M11.3371 17.4416C11.22 17.5588 11.03 17.5588 10.9129 17.4416L5.68338 12.2121C5.56623 12.095 5.56623 11.905 5.68338 11.7879L10.9129 6.55838C11.03 6.44123 11.22 6.44123 11.3371 6.55838L11.967 7.18823C12.084 7.30525 12.0842 7.49492 11.9673 7.61213L7.59425 12L11.9673 16.3879C12.0842 16.5051 12.084 16.6948 11.967 16.8118L11.3371 17.4416ZM17.6871 17.4416C17.57 17.5588 17.38 17.5588 17.2629 17.4416L12.0334 12.2121C11.9162 12.095 11.9162 11.905 12.0334 11.7879L17.2629 6.55838C17.38 6.44123 17.57 6.44123 17.6871 6.55838L18.317 7.18823C18.434 7.30525 18.4342 7.49492 18.3173 7.61213L13.9443 12L18.3173 16.3879C18.4342 16.5051 18.434 16.6948 18.317 16.8118L17.6871 17.4416Z" fill="#505050"/>
</svg>
