<svg width="24" height="24" viewBox="0 0 24 24" fill="none" xmlns="http://www.w3.org/2000/svg">
<path d="M10.0558 12L5.68267 7.61213C5.56585 7.49492 5.56601 7.30525 5.68303 7.18823L6.31287 6.55838C6.43003 6.44123 6.61998 6.44123 6.73713 6.55838L9.35188 9.17313L11.9666 11.7879C12.0838 11.905 12.0838 12.095 11.9666 12.2121L6.73713 17.4416C6.61998 17.5588 6.43003 17.5588 6.31287 17.4416L5.68303 16.8118C5.56601 16.6948 5.56585 16.5051 5.68267 16.3879L10.0558 12ZM16.4058 12L12.0327 7.61213C11.9158 7.49492 11.916 7.30525 12.033 7.18823L12.6629 6.55838C12.78 6.44123 12.97 6.44123 13.0871 6.55838L18.3166 11.7879C18.4338 11.905 18.4338 12.095 18.3166 12.2121L13.0871 17.4416C12.97 17.5588 12.78 17.5588 12.6629 17.4416L12.033 16.8118C11.916 16.6948 11.9158 16.5051 12.0327 16.3879L16.4058 12Z" fill="#505050"/>
</svg>
