<svg width="21" height="15" viewBox="0 0 21 15" fill="none" xmlns="http://www.w3.org/2000/svg">
<path d="M1.75 15C1.26417 15 0.851 14.8298 0.5105 14.4895C0.170167 14.149 0 13.7358 0 13.25V1.80775C0 1.32192 0.179833 0.899167 0.5395 0.5395C0.899167 0.179834 1.32192 0 1.80775 0H7.17374C7.2533 0 7.32961 0.0316071 7.38587 0.087868L9.21013 1.91213C9.26639 1.96839 9.3427 2 9.42226 2H17.1923C17.6398 2 18.0257 2.14458 18.35 2.43375C18.5859 2.64392 18.7495 2.88922 18.841 3.16965C18.8969 3.34083 18.7548 3.5 18.5748 3.5H8.80876C8.7292 3.5 8.65289 3.46839 8.59663 3.41213L6.77237 1.58787C6.71611 1.53161 6.6398 1.5 6.56024 1.5H1.80775C1.71792 1.5 1.64417 1.52883 1.5865 1.5865C1.52883 1.64417 1.5 1.71792 1.5 1.80775V13.1923C1.5 13.2628 1.51767 13.3204 1.553 13.3652C1.58817 13.4102 1.63458 13.4488 1.69225 13.4808L3.96093 5.90617C3.99895 5.77921 4.11578 5.69225 4.24831 5.69225H20.2795C20.4804 5.69225 20.6246 5.88601 20.5668 6.07851L18.2615 13.7578C18.1473 14.1333 17.9336 14.4342 17.6203 14.6605C17.3068 14.8868 16.959 15 16.577 15H1.75ZM3.2635 13.5H16.7693L18.6558 7.19225H5.15L3.2635 13.5Z" fill="#505050"/>
</svg>