<svg width="24" height="24" viewBox="0 0 24 24" fill="none" xmlns="http://www.w3.org/2000/svg">
<path fill-rule="evenodd" clip-rule="evenodd" d="M15.5533 17.5787C14.261 18.4748 12.6918 19 11 19C6.58172 19 3 15.4183 3 11C3 6.58172 6.58172 3 11 3C15.4183 3 19 6.58172 19 11C19 13.2027 18.1098 15.1975 16.6695 16.6442L21.0811 21.0558C21.1982 21.173 21.1982 21.3629 21.0811 21.4801L20.48 22.0811C20.3629 22.1983 20.1729 22.1983 20.0558 22.0811L15.5533 17.5787ZM17.55 11C17.55 14.6175 14.6175 17.55 11 17.55C7.38253 17.55 4.45 14.6175 4.45 11C4.45 7.38253 7.38253 4.45 11 4.45C14.6175 4.45 17.55 7.38253 17.55 11Z" fill="#8FBFFF"/>
</svg>
