<svg width="24" height="24" viewBox="0 0 24 24" fill="none" xmlns="http://www.w3.org/2000/svg">
<path d="M11.25 12.75H5.8C5.63431 12.75 5.5 12.6157 5.5 12.45V11.55C5.5 11.3843 5.63431 11.25 5.8 11.25H11.25V5.8C11.25 5.63431 11.3843 5.5 11.55 5.5H12.45C12.6157 5.5 12.75 5.63431 12.75 5.8V11.25H18.2C18.3657 11.25 18.5 11.3843 18.5 11.55V12.45C18.5 12.6157 18.3657 12.75 18.2 12.75H12.75V18.2C12.75 18.3657 12.6157 18.5 12.45 18.5H11.55C11.3843 18.5 11.25 18.3657 11.25 18.2V12.75Z" fill="#0A64FA"/>
</svg>
