<svg width="24" height="24" viewBox="0 0 24 24" fill="none" xmlns="http://www.w3.org/2000/svg">
<path d="M6.99493 22.0101C6.46302 22.0101 6.00862 21.8218 5.63173 21.4451C5.25502 21.0682 5.06667 20.6138 5.06667 20.0819V6.54347H4.3C4.13431 6.54347 4 6.40915 4 6.24347V5.24347C4 5.07778 4.13431 4.94347 4.3 4.94347H8.8V4.3C8.8 4.13431 8.93431 4 9.1 4H14.9C15.0657 4 15.2 4.13431 15.2 4.3V4.94347H19.7C19.8657 4.94347 20 5.07778 20 5.24347V6.24347C20 6.40915 19.8657 6.54347 19.7 6.54347H18.9333V20.0819C18.9333 20.6207 18.7467 21.0768 18.3733 21.4501C18 21.8235 17.5439 22.0101 17.0051 22.0101H6.99493ZM17.3333 6.54347H6.66667V20.0819C6.66667 20.1777 6.69742 20.2564 6.75893 20.3179C6.82044 20.3794 6.89911 20.4101 6.99493 20.4101H17.0051C17.0872 20.4101 17.1624 20.3759 17.2307 20.3075C17.2991 20.2392 17.3333 20.164 17.3333 20.0819V6.54347ZM9.23093 17.9768C9.23093 18.1425 9.36525 18.2768 9.53093 18.2768H10.5307C10.6964 18.2768 10.8307 18.1425 10.8307 17.9768V8.9768C10.8307 8.81111 10.6964 8.6768 10.5307 8.6768H9.53093C9.36525 8.6768 9.23093 8.81111 9.23093 8.9768V17.9768ZM13.1693 17.9768C13.1693 18.1425 13.3036 18.2768 13.4693 18.2768H14.4691C14.6348 18.2768 14.7691 18.1425 14.7691 17.9768V8.9768C14.7691 8.81111 14.6348 8.6768 14.4691 8.6768H13.4693C13.3036 8.6768 13.1693 8.81111 13.1693 8.9768V17.9768Z" fill="#C8C8C8"/>
</svg>
