<svg width="24" height="25" viewBox="0 0 24 25" fill="none" xmlns="http://www.w3.org/2000/svg">
<rect y="0.5" width="24" height="24" rx="12" fill="#DD4040"/>
<path d="M12 20.4241C11.5875 20.4241 11.2344 20.2773 10.9408 19.9836C10.6469 19.6898 10.5 19.3366 10.5 18.9241C10.5 18.5116 10.6469 18.1585 10.9408 17.8649C11.2344 17.571 11.5875 17.4241 12 17.4241C12.4125 17.4241 12.7656 17.571 13.0592 17.8649C13.3531 18.1585 13.5 18.5116 13.5 18.9241C13.5 19.3366 13.3531 19.6898 13.0592 19.9836C12.7656 20.2773 12.4125 20.4241 12 20.4241ZM10.9348 15.5204C10.7691 15.5204 10.6348 15.3861 10.6348 15.2204V4.37812C10.6348 4.21244 10.7691 4.07812 10.9348 4.07812H13.0652C13.2309 4.07812 13.3652 4.21244 13.3652 4.37813V15.2204C13.3652 15.3861 13.2309 15.5204 13.0652 15.5204H10.9348Z" fill="white"/>
</svg>
