<svg width="42" height="41" viewBox="0 0 42 41" fill="none" xmlns="http://www.w3.org/2000/svg">
<rect x="0.5" width="41" height="41" rx="20.5" fill="#0A64FA"/>
<path d="M21 34.0338C20.2953 34.0338 19.6921 33.7829 19.1904 33.2813C18.6885 32.7793 18.4375 32.176 18.4375 31.4713C18.4375 30.7666 18.6885 30.1634 19.1904 29.6617C19.6921 29.1598 20.2953 28.9088 21 28.9088C21.7047 28.9088 22.3079 29.1598 22.8096 29.6617C23.3115 30.1634 23.5625 30.7666 23.5625 31.4713C23.5625 32.176 23.3115 32.7793 22.8096 33.2813C22.3079 33.7829 21.7047 34.0338 21 34.0338ZM18.9677 25.6565C18.802 25.6565 18.6677 25.5222 18.6677 25.3566V6.40937C18.6677 6.24369 18.802 6.10938 18.9677 6.10938H23.0323C23.198 6.10938 23.3323 6.24369 23.3323 6.40938V25.3566C23.3323 25.5222 23.198 25.6565 23.0323 25.6565H18.9677Z" fill="white"/>
</svg>
